<?xml version="1.0" encoding="utf-8"?>
<!-- Generator: Adobe Illustrator 19.0.0, SVG Export Plug-In . SVG Version: 6.00 Build 0)  -->
<svg version="1.1" id="Calque_1" xmlns="http://www.w3.org/2000/svg" xmlns:xlink="http://www.w3.org/1999/xlink" x="0px" y="0px"
	 viewBox="148 47.3 908.1 699.7" style="enable-background:new 148 47.3 908.1 699.7;" xml:space="preserve">
<path id="Rectangle_57_1_" style="fill:#E6E6E6;" d="M470,264h46.9c5.8,0,10.5,4.7,10.5,10.5v46.9c0,5.8-4.7,10.5-10.5,10.5H470
	c-5.8,0-10.5-4.7-10.5-10.5v-46.9C459.5,268.7,464.2,264,470,264z"/>
<g id="Group_19" transform="translate(-169.938 -93)">
	<g id="Group_17" transform="translate(97.619 160.674)">
		<path id="Path_125" style="fill:#E6E6E6;" d="M1007.8,550.3c-2.2-17.2,4.7-34.8,0.6-51.6c-3.1-13-12.4-23.8-15.5-36.8
			c-4.5-19.3,5.8-39.1,18.9-53.9c9-10.2,20.3-19.5,33.8-21.3c8.3-1.2,16.9,0.6,24.6,4c15.8,7.1,27.9,20.4,33.5,36.8
			c1.8,5.3,2.8,10.8,5,15.9c3.8,8.8,10.7,15.9,14.9,24.5c5.8,11.7,6.3,25.4,1.6,37.5c-5,12.4-15.4,22.8-16.9,36
			c-1.1,9.6,2.5,20-2.2,28.5c-3.5,6.4-10.8,9.6-17.6,12c-15.9,5.5-38.2,14.5-54.2,6C1020.2,580.4,1009.9,566.2,1007.8,550.3z"/>
		<path id="Path_126" style="fill:none;stroke:#D0CDE1;stroke-width:3;stroke-miterlimit:10;" d="M1052.6,557.5
			c0,0,17.5-7.1,19.7-11c2.2-4,5.3-27.3,5.3-27.3"/>
		
			<line id="Line_2" style="fill:none;stroke:#D0CDE1;stroke-width:3;stroke-miterlimit:10;" x1="1052.3" y1="676.6" x2="1052.9" y2="506.2"/>
		<path id="Path_173" style="fill:#4D4D4D;" d="M920.5,494.2c-2.5-19.9,5.4-40.4,0.7-59.9c-3.6-15.1-14.4-27.6-18-42.7
			c-5.2-22.4,6.7-45.3,21.9-62.5c10.5-11.8,23.6-22.6,39.2-24.7c9.7-1.4,19.6,0.7,28.5,4.7c18.3,8.2,32.4,23.7,38.9,42.7
			c2.1,6.1,3.2,12.5,5.8,18.4c4.4,10.2,12.4,18.4,17.3,28.4c6.7,13.6,7.4,29.4,1.8,43.5c-5.8,14.4-17.9,26.4-19.6,41.8
			c-1.3,11.1,2.9,23.2-2.5,33c-4.1,7.4-12.5,11.1-20.4,13.9c-18.5,6.4-44.3,16.9-62.9,6.9C934.9,529,922.9,512.6,920.5,494.2z"/>
		
			<line id="Line_3" style="fill:none;stroke:#333333;stroke-width:3;stroke-miterlimit:10;" x1="972.2" y1="676.6" x2="972.2" y2="439.7"/>
		<path id="Path_174" style="fill:none;stroke:#333333;stroke-width:3;stroke-miterlimit:10;" d="M972.4,508.3
			c0,0,27.2-11,30.7-17.2s8.2-42.6,8.2-42.6"/>
	</g>
	<g id="Group_18" transform="translate(94.149 -64.901)">
		<path id="Path_102" style="fill:none;" d="M576.7,426.4"/>
		<circle id="Ellipse_2" style="fill:#FFFFFF;" cx="752" cy="232.3" r="3.2"/>
		<g id="Group_11" transform="translate(386.852 271.864)">
			<path id="Rectangle_52" style="fill:#038B99;" d="M158.5,47.3h46.9c5.8,0,10.5,4.7,10.5,10.5v46.9c0,5.8-4.7,10.5-10.5,10.5
				h-46.9c-5.8,0-10.5-4.7-10.5-10.5V57.8C148,52,152.7,47.3,158.5,47.3z"/>
			<path id="Rectangle_53" style="fill:#E6E6E6;" d="M242.4,47.3h46.9c5.8,0,10.5,4.7,10.5,10.5v46.9c0,5.8-4.7,10.5-10.5,10.5
				h-46.9c-5.8,0-10.5-4.7-10.5-10.5V57.8C231.9,52,236.6,47.3,242.4,47.3z"/>
			<path id="Rectangle_54" style="fill:#038B99;" d="M326.2,47.3h46.9c5.8,0,10.5,4.7,10.5,10.5v46.9c0,5.8-4.7,10.5-10.5,10.5
				h-46.9c-5.8,0-10.5-4.7-10.5-10.5V57.8C315.7,52,320.4,47.3,326.2,47.3z"/>
			<path id="Rectangle_55" style="fill:#E6E6E6;" d="M410.1,47.3H457c5.8,0,10.5,4.7,10.5,10.5v46.9c0,5.8-4.7,10.5-10.5,10.5h-46.9
				c-5.8,0-10.5-4.7-10.5-10.5V57.8C399.6,52,404.3,47.3,410.1,47.3z"/>
		</g>
		<path id="Rectangle_56" style="fill:#FDC82C;" d="M545.4,421.1h46.9c5.8,0,10.5,4.7,10.5,10.5v46.9c0,5.8-4.7,10.5-10.5,10.5
			h-46.9c-5.8,0-10.5-4.7-10.5-10.5v-46.9C534.9,425.8,539.6,421.1,545.4,421.1z"/>
		<path id="Rectangle_57" style="fill:#E6E6E6;" d="M629.2,421.1h46.9c5.8,0,10.5,4.7,10.5,10.5v46.9c0,5.8-4.7,10.5-10.5,10.5
			h-46.9c-5.8,0-10.5-4.7-10.5-10.5v-46.9C618.7,425.8,623.4,421.1,629.2,421.1z"/>
		<path id="Rectangle_58" style="fill:#E6E6E6;" d="M713,421.1h46.9c5.8,0,10.5,4.7,10.5,10.5v46.9c0,5.8-4.7,10.5-10.5,10.5H713
			c-5.8,0-10.5-4.7-10.5-10.5v-46.9C702.5,425.8,707.2,421.1,713,421.1z"/>
		<path id="Rectangle_59" style="fill:#20494F;" d="M796.9,421.1h46.9c5.8,0,10.5,4.7,10.5,10.5v46.9c0,5.8-4.7,10.5-10.5,10.5
			h-46.9c-5.8,0-10.5-4.7-10.5-10.5v-46.9C786.4,425.8,791.1,421.1,796.9,421.1z"/>
		<g id="Group_12" transform="translate(386.852 475.687)">
			<path id="Rectangle_60" style="fill:#E6E6E6;" d="M158.5,47.3h46.9c5.8,0,10.5,4.7,10.5,10.5v46.9c0,5.8-4.7,10.5-10.5,10.5
				h-46.9c-5.8,0-10.5-4.7-10.5-10.5V57.8C148,52,152.7,47.3,158.5,47.3z"/>
			<path id="Rectangle_61" style="fill:#20494F;" d="M242.4,47.3h46.9c5.8,0,10.5,4.7,10.5,10.5v46.9c0,5.8-4.7,10.5-10.5,10.5
				h-46.9c-5.8,0-10.5-4.7-10.5-10.5V57.8C231.9,52,236.6,47.3,242.4,47.3z"/>
			<path id="Rectangle_62" style="fill:#038B99;" d="M326.2,47.3h46.9c5.8,0,10.5,4.7,10.5,10.5v46.9c0,5.8-4.7,10.5-10.5,10.5
				h-46.9c-5.8,0-10.5-4.7-10.5-10.5V57.8C315.7,52,320.4,47.3,326.2,47.3z"/>
			<path id="Rectangle_63" style="fill:#E6E6E6;" d="M410.1,47.3H457c5.8,0,10.5,4.7,10.5,10.5v46.9c0,5.8-4.7,10.5-10.5,10.5h-46.9
				c-5.8,0-10.5-4.7-10.5-10.5V57.8C399.6,52,404.3,47.3,410.1,47.3z"/>
		</g>
		<g id="Group_13" transform="translate(386.852 577.599)">
			<path id="Rectangle_64" style="fill:#E6E6E6;" d="M158.5,47.3h46.9c5.8,0,10.5,4.7,10.5,10.5v46.9c0,5.8-4.7,10.5-10.5,10.5
				h-46.9c-5.8,0-10.5-4.7-10.5-10.5V57.8C148,52,152.7,47.3,158.5,47.3z"/>
			<path id="Rectangle_65" style="fill:#038B99;" d="M242.4,47.3h46.9c5.8,0,10.5,4.7,10.5,10.5v46.9c0,5.8-4.7,10.5-10.5,10.5
				h-46.9c-5.8,0-10.5-4.7-10.5-10.5V57.8C231.9,52,236.6,47.3,242.4,47.3z"/>
			<path id="Rectangle_66" style="fill:#E6E6E6;" d="M326.2,47.3h46.9c5.8,0,10.5,4.7,10.5,10.5v46.9c0,5.8-4.7,10.5-10.5,10.5
				h-46.9c-5.8,0-10.5-4.7-10.5-10.5V57.8C315.7,52,320.4,47.3,326.2,47.3z"/>
			<path id="Rectangle_67" style="fill:#20494F;" d="M410.1,47.3H457c5.8,0,10.5,4.7,10.5,10.5v46.9c0,5.8-4.7,10.5-10.5,10.5h-46.9
				c-5.8,0-10.5-4.7-10.5-10.5V57.8C399.6,52,404.3,47.3,410.1,47.3z"/>
		</g>
	</g>
	<g id="Group_16" transform="translate(-124.287 259.103)">
		<path id="Path_159" style="fill:#FDA57D;" d="M736.7,119.4v15.5l-18.4,27l18.4,12c0,0,8.2-31.6,12.6-35.3c0,0,6.9-4.9,10.7-11.8
			c3.8-6.8,1.9-30.3-16.4-9.3v2.5L736.7,119.4z"/>
		<path id="Path_160" style="fill:#FDA57D;" d="M593.2,147.3l7.3-14.6c0.4-0.9,1.3-1.4,2.3-1.5l27.7-1.4c1.5-0.1,2.8,1.1,2.8,2.6
			c0,0.4,0,0.8-0.2,1.1L626,152c-0.4,1.1-1.6,1.8-2.8,1.7l-27.9-2.5c-1.5-0.1-2.6-1.4-2.5-2.9C592.9,147.9,593,147.6,593.2,147.3z"
			/>
		<path id="Path_161" style="fill:#EDEEF9;" d="M595.2,141l-4.7,13.8l48.3-1.7L620.3,142L595.2,141z"/>
		<path id="Path_163" style="fill:#4D4D4D;" d="M575.9,291.9c1.9,9.5,0.8,19.5-3.3,28.3c-6.8,14.2-6.8,29.1,1.9,46.4l2.5,89.7
			c0,0,3.1,42.1,0,50.7s1.2,50.1,1.2,50.1h34.7v-27.9l11.8-82.3V405l21.1,43.9l-24.1,101.5l31.6,13l39.6-113.9
			c0,0-6.9-89.7-31.6-120.7l-4.7-33.7L575.9,291.9z"/>
		<path id="Path_164" d="M577.6,578.1v-22.9h35.3c0,0,2.5,9.3,18.6,11.1c16.1,1.9-7.4,13-7.4,13L577.6,578.1z"/>
		<path id="Path_165" d="M616.7,567.8l6.1-22.1l30.5,9.7c0,0,3.3,9.4,18.3,15.5c10.2,4.2-0.9,8.9-0.9,8.9l-4,1L616.7,567.8z"/>
		<path id="Path_166" style="opacity:0.1;enable-background:new    ;" d="M656.5,297l-80.6-3.3c1,4.8,1.2,9.7,0.6,14.6
			c3.7,8.7,11.6,6.3,11.6,6.3l70.5-2.2L656.5,297z"/>
		<path id="Path_167" style="fill:#808080;" d="M592.1,149.7l-3.2,2.2c-19.9,13.5-29.9,37.4-25.6,61l0,0c0,0,17.9,35.1,12.4,70.3
			s12.4,29.7,12.4,29.7l70.9-2.2l5.3-106.5c0,0,42.7,6.1,61.9-8.8l15.5-23.6L718,155.4l-8,11.5c0,0-25.2-5.3-39-10.9
			c-6.5-2.6-13.3-4.1-20.3-4.3L592.1,149.7z"/>
		<path id="Path_168" style="opacity:0.1;enable-background:new    ;" d="M592.7,321.1c0,0-4.3,21.7,20.4,57.5"/>
		<path id="Path_169" style="opacity:0.1;enable-background:new    ;" d="M664.5,204.2c0,0,29.7-9.9,42.7-9.9s10.8,5.6,10.8,5.6
			S697.3,209.1,664.5,204.2z"/>
		<path id="Path_170" style="opacity:0.1;enable-background:new    ;" d="M630.8,131.1l-11.8,1.4c-0.4,0-0.7,0.5-0.9,1.2
			c2.6,4.7,5.9,7.5,9.4,7.5c1.3,0,2.5-0.4,3.6-1l0.9-5.5C632.3,132.9,631.7,131,630.8,131.1z"/>
		<circle id="Ellipse_3" style="fill:#FDA57D;" cx="622.6" cy="103.9" r="36.1"/>
		<path id="Path_171" style="opacity:0.1;enable-background:new    ;" d="M653.3,83.4L653.3,83.4l-1.8,1.7c-2.5,2.3-2.7,6.3-0.4,8.8
			c0.6,0.7,1.4,1.2,2.2,1.5l0,0c0,0-16.2,16.2-18.4,19.2s0.4,10.9,0.4,10.9s7.1,13.2-30.5,10.1c0,0-24.8-5.3-22.2-38.7
			c0.3-3.4-5.3-12,11.3-16.5l0,0c1-9.6,8-17.6,17.4-19.8c6.4-1.6,13-2.2,19.6-1.7C643.6,60,653.3,70.7,653.3,83.4z"/>
		<path id="Path_172" style="fill:#1A1A1A;" d="M654.1,81.5L654.1,81.5c0,0,3.8,1.2,4,13.8l-5.5-0.4c0,0-12.6,33.7-11.3,29.3
			c4.9-16.2-4.9-13.2-7.1-10.1s0.4,10.9,0.4,10.9s7.1,13.2-30.5,10.1c0,0-24.8-5.3-22.2-38.7c0.3-3.4-5.3-12,11.3-16.5l0,0
			c1-9.6,8-17.6,17.4-19.8c6.4-1.6,13-2.2,19.6-1.7C642.9,59.4,654.1,68.7,654.1,81.5z"/>
	</g>
	<path id="Path_142" style="fill:none;stroke:#D0CDE1;stroke-width:2;stroke-miterlimit:10;" d="M355.2,837.3c0,0-15.8-53.5,3-92.9
		c7.9-16.5,10.3-35.1,6.8-53c-1.7-8.5-4.3-16.8-7.5-24.9"/>
	<path id="Path_143" style="fill:#E6E6E6;" d="M369.1,641.6c0,6.6-11.9,25.6-11.9,25.6s-11.9-19-11.9-25.6c0-6.6,5.3-11.9,11.9-11.9
		S369.1,635,369.1,641.6L369.1,641.6z"/>
	<path id="Path_144" style="fill:#E6E6E6;" d="M389.7,677.9c-3.6,5.5-23.9,15-23.9,15s0.4-22.4,3.9-27.9c3.6-5.5,10.9-7.1,16.4-3.5
		C391.7,665,393.3,672.4,389.7,677.9L389.7,677.9z"/>
	<path id="Path_145" style="fill:#E6E6E6;" d="M387.9,740c-5.8,3-28.2,0.9-28.2,0.9s11.6-19.2,17.5-22.1c5.9-3,13-0.6,15.9,5.3
		C396.1,729.9,393.7,737,387.9,740L387.9,740z"/>
	<path id="Path_146" style="fill:#E6E6E6;" d="M376.7,786.8c-5.3,3.9-27.6,5.7-27.6,5.7s8.2-20.8,13.5-24.8
		c5.3-3.9,12.7-2.8,16.6,2.5C383,775.4,381.9,782.9,376.7,786.8L376.7,786.8z"/>
	<path id="Path_147" style="fill:#E6E6E6;" d="M339.9,694.2c4.7,4.6,26.6,9.3,26.6,9.3s-5.4-21.8-10.1-26.3
		c-4.9-4.4-12.4-4-16.8,0.8C335.5,682.6,335.6,689.7,339.9,694.2L339.9,694.2z"/>
	<path id="Path_148" style="fill:#E6E6E6;" d="M327.5,749.1c5.8,3,28.2,0.9,28.2,0.9s-11.6-19.2-17.5-22.1c-5.9-3-13-0.6-15.9,5.3
		S321.7,746.1,327.5,749.1L327.5,749.1z"/>
	<path id="Path_149" style="fill:#E6E6E6;" d="M322.8,804.1c5.3,3.9,27.6,5.7,27.6,5.7s-8.2-20.8-13.5-24.8
		c-5.3-3.9-12.7-2.8-16.6,2.5C316.4,792.8,317.5,800.2,322.8,804.1z"/>
	<rect id="Rectangle_22" x="318" y="837.7" style="fill:#2F2E41;" width="907.6" height="1.6"/>
</g>
<g id="logoxx">
	<rect id="XMLID_447_" x="471.3" y="281.5" style="fill:#080603;" width="6.5" height="38.6"/>
	<rect id="XMLID_444_" x="496.9" y="300.8" style="fill:#080603;" width="10.5" height="11"/>
	<rect id="XMLID_441_" x="497.8" y="281.5" style="fill:#080603;" width="8.8" height="11.5"/>
	
		<rect id="XMLID_438_" x="469.5" y="274.1" style="fill:none;stroke:#048B9A;stroke-width:6;stroke-miterlimit:10;" width="46" height="46"/>
	<rect id="XMLID_435_" x="484.1" y="292.7" style="fill:#048B9A;" width="6.4" height="26.3"/>
</g>
</svg>
