<?xml version="1.0" encoding="utf-8"?>
<!-- Generator: Adobe Illustrator 19.0.0, SVG Export Plug-In . SVG Version: 6.00 Build 0)  -->
<svg version="1.1" id="e96d43fc-c2ba-4d44-92c2-c0adf9da4e64"
	 xmlns="http://www.w3.org/2000/svg" xmlns:xlink="http://www.w3.org/1999/xlink" x="0px" y="0px" viewBox="125 110 862.8 574"
	 style="enable-background:new 125 110 862.8 574;" xml:space="preserve">
<style type="text/css">
	.st0{fill:#4AA304;}
	.st1{fill:#F2F2F2;}
	.st2{fill:url(#SVGID_1_);}
	.st3{fill:#F55F44;}
	.st4{fill:#FDA57D;}
	.st5{opacity:5.000000e-002;enable-background:new    ;}
	.st6{fill:#048B9A;}
	.st7{opacity:0.7;}
	.st8{fill:url(#SVGID_2_);}
	.st9{fill:#FDC82C;}
	.st10{fill:#E0E0E0;}
	.st11{fill:url(#SVGID_3_);}
	.st12{fill:#FFFFFF;}
	.st13{opacity:0.1;enable-background:new    ;}
	.st14{fill:#EEEEEE;}
	.st15{opacity:0.1;fill:#048B9A;enable-background:new    ;}
	.st16{opacity:0.5;}
	.st17{fill:url(#SVGID_4_);}
	.st18{fill:#F5F5F5;}
	.st19{fill:url(#SVGID_5_);}
	.st20{fill:url(#SVGID_6_);}
	.st21{opacity:0.6;}
	.st22{fill:#BDBDBD;}
	.st23{fill:url(#SVGID_7_);}
	.st24{opacity:0.6;fill:#3AD29F;enable-background:new    ;}
	.st25{fill:url(#SVGID_8_);}
	.st26{fill:#FF0000;}
	.st27{fill:url(#SVGID_9_);}
	.st28{fill:#69F0AE;}
</style>
<title>Organizing projects</title>
<path class="st0" d="M230.4,615.6c0,18.9-11.2,25.5-25.1,25.5c-0.3,0-0.6,0-1,0c-0.6,0-1.3,0-1.9-0.1c-12.5-0.9-22.2-7.8-22.2-25.4
	c0-18.2,23.2-41.1,25-42.8l0,0c0.1-0.1,0.1-0.1,0.1-0.1S230.4,596.7,230.4,615.6z"/>
<path class="st1" d="M204.4,638.2l9.2-12.8l-9.2,14.2l0,1.5c-0.6,0-1.3,0-1.9-0.1l1-18.9l0-0.1l0,0l0.1-1.8l-9.2-14.3l9.2,12.9
	l0,0.4l0.7-14.3l-7.9-14.7l8,12.2l0.8-29.6l0-0.1v0.1l-0.1,23.3l7.9-9.3l-7.9,11.3l-0.2,12.8l7.3-12.3l-7.4,14.1l-0.1,7.1l10.6-17.1
	l-10.7,19.5L204.4,638.2z"/>
<linearGradient id="SVGID_1_" gradientUnits="userSpaceOnUse" x1="616.8141" y1="36.9105" x2="616.8142" y2="410.2234" gradientTransform="matrix(1 0 0 -1 -168.578 633)">
	<stop  offset="0" style="stop-color:#808080;stop-opacity:0.25"/>
	<stop  offset="0.5351" style="stop-color:#808080;stop-opacity:0.12"/>
	<stop  offset="1" style="stop-color:#808080;stop-opacity:0.1"/>
</linearGradient>
<path class="st2" d="M548.9,506.4c-6.7-24.3-43.9-42.2-72.9-46.9v-11.7c0.5-0.2,1.1-0.4,1.6-0.6c-0.2-2.3-0.6-4.6-1.4-6.8
	c12.4-5,23.1-13.5,30.9-24.4c30.3-31.7,29.1-81.9-2.5-112.2c-4-3.8-8.4-7.2-13.1-10.1c7.3-4.6,9.5-14.2,4.9-21.5
	c-2.6-4.1-7-6.8-11.8-7.2c6.5-15.5-0.7-33.3-16.1-39.8c-10.4-4.4-22.4-2.7-31.2,4.5c14.8-7.9,33.2-2.3,41.1,12.6
	c2.3,4.4,3.6,9.3,3.6,14.3c0,0.3,0,0.5,0,0.8c-0.5-16.8-14.5-30-31.3-29.5c-16.8,0.5-30,14.5-29.5,31.3c0.1,3.3,0.7,6.5,1.8,9.5
	c-8.2,1.8-13.4,9.9-11.6,18.1c0.3,1.5,0.9,2.9,1.6,4.2c-38.8,20.4-53.7,68.4-33.3,107.2c3.7,7,8.4,13.4,14,19.1
	c7.4,9.9,17.3,17.8,28.6,22.7v19.5c-29.3,4.2-67.9,22.4-74.7,47.4c-5.9,21.7-12.2,45.6-15.3,59.5c26.8,18.8,82.9,29.9,118.1,29.9
	c33.4,0,88.1-10,114.1-27.1C561.5,553.6,555.1,528.7,548.9,506.4z M495.3,281.9c0,0.3,0,0.6,0,0.8c-0.4-7.1-5.6-12.9-12.6-14.1
	c0.3-0.5,0.6-1,0.8-1.5C490.4,268.6,495.3,274.8,495.3,281.9z"/>
<path d="M450.2,590.8c32.5,0,85.6-9.7,110.9-26.3c-2.7-14.9-9-39.1-15-60.8c-7.6-27.6-55.5-46.7-84.1-46.7h-27.5
	c-28.7,0-76.7,19.2-84.2,46.9c-5.7,21.1-11.8,44.3-14.8,57.9C361.4,580,416,590.8,450.2,590.8z"/>
<circle class="st3" cx="449.7" cy="362.6" r="77.1"/>
<path class="st4" d="M428.9,416.2h40.3c3.3,0,6,2.7,6,6l0,0v41.2c0,13.7-11.1,24.8-24.8,24.8l0,0h-2.8c-13.7,0-24.8-11.1-24.8-24.8
	l0,0v-41.2C422.8,418.9,425.5,416.2,428.9,416.2L428.9,416.2z"/>
<path class="st5" d="M451.5,451.1c8.7,0,17.3-1.7,25.3-4.9c-0.9-13.2-11.8-23.5-25-23.5h-2.1c-13,0-23.8,9.9-25,22.9
	C433.1,449.2,442.2,451.1,451.5,451.1z"/>
<circle class="st4" cx="449.8" cy="376.3" r="68.2"/>
<circle class="st3" cx="426.7" cy="287.1" r="14.8"/>
<circle class="st3" cx="479.2" cy="287.1" r="14.8"/>
<circle class="st3" cx="451.3" cy="262.5" r="29.5"/>
<path class="st3" d="M482.5,269.1c-2.9,0-5.8,0.9-8.2,2.5c7.7-2.7,16.1,1.3,18.9,8.9c2.3,6.4-0.1,13.4-5.7,17.2
	c7.7-2.7,11.7-11.2,8.9-18.8C494.3,273,488.7,269.1,482.5,269.1z"/>
<path class="st3" d="M456.2,228.1c-6.9,0-13.5,2.4-18.8,6.7c14.4-7.7,32.3-2.2,39.9,12.2c6.6,12.4,3.5,27.7-7.3,36.6
	c14.4-7.7,19.9-25.5,12.2-39.9C477.2,234.1,467.2,228.1,456.2,228.1z"/>
<path class="st3" d="M400.5,315c0,0,8.2,54.1,111.5,24.6l-50.8-44.3L400.5,315z"/>
<path class="st6" d="M184.5,625H227c7.9,0,14.3,6.4,14.3,14.3v1.6c0,7.9-6.4,14.3-14.3,14.3h-42.5c-7.9,0-14.3-6.4-14.3-14.3v-1.6
	C170.2,631.4,176.6,625,184.5,625z"/>
<g class="st7">
	
		<linearGradient id="SVGID_2_" gradientUnits="userSpaceOnUse" x1="868.5615" y1="-22.8148" x2="868.5615" y2="38.1978" gradientTransform="matrix(1 0 0 -1 -168.578 633)">
		<stop  offset="0" style="stop-color:#808080;stop-opacity:0.25"/>
		<stop  offset="0.5351" style="stop-color:#808080;stop-opacity:0.12"/>
		<stop  offset="1" style="stop-color:#808080;stop-opacity:0.1"/>
	</linearGradient>
	<path class="st8" d="M720.1,605.7v-10.9h-54.5v50.4c0,5.9,4.8,10.6,10.6,10.6h33.2c5.9,0,10.6-4.8,10.6-10.6V634
		c7.8,0,14.2-6.3,14.2-14.2C734.3,612.1,728,605.7,720.1,605.7C720.1,605.7,720.1,605.7,720.1,605.7L720.1,605.7z M720.1,628.6
		v-17.4c4.8,0,8.7,3.9,8.7,8.7C728.8,624.7,724.9,628.6,720.1,628.6L720.1,628.6z"/>
</g>
<path class="st6" d="M718.4,607.4c-7.1,0-12.9,5.8-12.9,12.9s5.8,12.9,12.9,12.9s12.9-5.8,12.9-12.9S725.5,607.4,718.4,607.4
	L718.4,607.4z M718.4,628.3c-4.4,0-8-3.6-8-8c0-4.4,3.6-8,8-8c4.4,0,8,3.6,8,8l0,0C726.3,624.7,722.8,628.3,718.4,628.3z"/>
<path class="st9" d="M668.6,597.5h49.7l0,0v46c0,5.4-4.4,9.8-9.8,9.8h-30.2c-5.4,0-9.8-4.4-9.8-9.8V597.5L668.6,597.5z"/>
<rect x="125" y="653.2" class="st10" width="645.6" height="21.9"/>
<g class="st7">
	
		<linearGradient id="SVGID_3_" gradientUnits="userSpaceOnUse" x1="447.8031" y1="142.8379" x2="447.8031" y2="300.9391" gradientTransform="matrix(1 0 0 -1 0 796)">
		<stop  offset="0" style="stop-color:#808080;stop-opacity:0.25"/>
		<stop  offset="0.5351" style="stop-color:#808080;stop-opacity:0.12"/>
		<stop  offset="1" style="stop-color:#808080;stop-opacity:0.1"/>
	</linearGradient>
	<path class="st11" d="M325,495.1h245.6c8,0,14.5,6.5,14.5,14.5v129.1c0,8-6.5,14.5-14.5,14.5H325c-8,0-14.5-6.5-14.5-14.5V509.6
		C310.5,501.6,317,495.1,325,495.1z"/>
</g>
<path class="st6" d="M342.3,498h210.9c14.8,0,26.8,12,26.8,26.8v101.5c0,14.8-12,26.8-26.8,26.8H342.3c-14.8,0-26.8-12-26.8-26.8
	V524.8C315.5,510,327.5,498,342.3,498z"/>
<circle class="st12" cx="447.8" cy="575.6" r="9"/>
<rect x="152.4" y="675" class="st10" width="590.9" height="9"/>
<rect x="152.4" y="675" class="st13" width="590.9" height="3"/>
<path class="st13" d="M709.4,597.5v46c0,5.4-4.3,9.7-9.7,9.7h5c5.4,0,9.7-4.3,9.7-9.7v-46H709.4z"/>
<path class="st14" d="M678.5,560.4c-0.9,0-1.7,0.4-2.2,1.1c-0.7,1.2,0.5,2.5,1.6,3.3c2,1.5,4.1,3,5.4,5.1s1.8,5,0.3,7
	c-1.9,2.6-6.5,3.2-7,6.4c-0.3,2.1,1.5,3.8,3.3,4.9c4.5,2.6,10.3,3.3,13.5,7.3c1.3-2.8,4.3-4.4,7.3-5s6.1-0.6,9.1-1.1
	c1,0,1.9-0.5,2.5-1.3c0.8-1.7-1.6-3.8-0.7-5.5c0.6-1.3,2.5-1.2,3.9-1.7c2.2-0.9,3.1-3.7,2.5-6s-2.4-4.1-4.3-5.6
	c-5-4-11.1-6.3-17.2-8c-2.9-0.8-6.2-2-9.2-2.1C684.5,559,681.3,559.9,678.5,560.4z"/>
<rect x="553.4" y="110" class="st15" width="434.5" height="297.7"/>
<g id="pagesxx">
	<g class="st16">
		
			<linearGradient id="SVGID_4_" gradientUnits="userSpaceOnUse" x1="644.1213" y1="562.322" x2="644.1213" y2="656.6842" gradientTransform="matrix(1 0 0 -1 0 796)">
			<stop  offset="0" style="stop-color:#808080;stop-opacity:0.25"/>
			<stop  offset="0.5351" style="stop-color:#808080;stop-opacity:0.12"/>
			<stop  offset="1" style="stop-color:#808080;stop-opacity:0.1"/>
		</linearGradient>
		<path class="st17" d="M597.5,139.3h93.3c2.5,0,4.5,2,4.5,4.5v85.4c0,2.5-2,4.5-4.5,4.5h-93.3c-2.5,0-4.5-2-4.5-4.5v-85.4
			C593,141.3,595,139.3,597.5,139.3z"/>
	</g>
	<path class="st18" d="M598.7,140h90.9c2.5,0,4.5,2,4.5,4.5v83.1c0,2.5-2,4.5-4.5,4.5h-90.9c-2.5,0-4.5-2-4.5-4.5v-83.1
		C594.2,142.1,596.2,140,598.7,140z"/>
	<path class="st9" d="M606.4,155.2h7.9c2.5,0,4.5,2,4.5,4.5v6.2c0,2.5-2,4.5-4.5,4.5h-7.9c-2.5,0-4.5-2-4.5-4.5v-6.2
		C601.9,157.2,603.9,155.2,606.4,155.2z"/>
	<path class="st10" d="M624.6,155.2H690c0.4,0,0.8,0.4,0.8,0.8v0.1c0,0.4-0.4,0.8-0.8,0.8h-65.4c-0.4,0-0.8-0.4-0.8-0.8V156
		C623.8,155.6,624.2,155.2,624.6,155.2z"/>
	<path class="st10" d="M624.6,160.3H690c0.4,0,0.8,0.4,0.8,0.8v0.1c0,0.4-0.4,0.8-0.8,0.8h-65.4c-0.4,0-0.8-0.4-0.8-0.8v-0.1
		C623.8,160.6,624.2,160.3,624.6,160.3z"/>
	<path class="st10" d="M601,178.6h89c0.4,0,0.8,0.4,0.8,0.8v0.1c0,0.4-0.4,0.8-0.8,0.8h-89c-0.4,0-0.8-0.4-0.8-0.8v-0.1
		C600.2,179,600.6,178.6,601,178.6z"/>
	<path class="st10" d="M601,183.7h89c0.4,0,0.8,0.4,0.8,0.8v0.1c0,0.4-0.4,0.8-0.8,0.8h-89c-0.4,0-0.8-0.4-0.8-0.8v-0.1
		C600.2,184,600.6,183.7,601,183.7z"/>
	<path class="st10" d="M601,190.4h89c0.4,0,0.8,0.4,0.8,0.8v0.1c0,0.4-0.4,0.8-0.8,0.8h-89c-0.4,0-0.8-0.4-0.8-0.8v-0.1
		C600.2,190.8,600.6,190.4,601,190.4z"/>
	<path class="st10" d="M601,195.5h50.6c0.4,0,0.8,0.4,0.8,0.8v0.1c0,0.4-0.4,0.8-0.8,0.8H601c-0.4,0-0.8-0.4-0.8-0.8v-0.1
		C600.2,195.8,600.6,195.5,601,195.5z"/>
	<path class="st10" d="M601,202.2h89c0.4,0,0.8,0.4,0.8,0.8v0.1c0,0.4-0.4,0.8-0.8,0.8h-89c-0.4,0-0.8-0.4-0.8-0.8V203
		C600.2,202.5,600.6,202.2,601,202.2z"/>
	<path class="st10" d="M601,207.2h89c0.4,0,0.8,0.4,0.8,0.8v0.1c0,0.4-0.4,0.8-0.8,0.8h-89c-0.4,0-0.8-0.4-0.8-0.8V208
		C600.2,207.6,600.6,207.2,601,207.2z"/>
	<path class="st10" d="M601,214h89c0.4,0,0.8,0.4,0.8,0.8v0.1c0,0.4-0.4,0.8-0.8,0.8h-89c-0.4,0-0.8-0.4-0.8-0.8v-0.1
		C600.2,214.3,600.6,214,601,214z"/>
	<path class="st10" d="M601,219h50.6c0.4,0,0.8,0.4,0.8,0.8v0.1c0,0.4-0.4,0.8-0.8,0.8H601c-0.4,0-0.8-0.4-0.8-0.8v-0.1
		C600.2,219.4,600.6,219,601,219z"/>
	<g class="st16">
		
			<linearGradient id="SVGID_5_" gradientUnits="userSpaceOnUse" x1="659.5568" y1="540.5164" x2="659.5568" y2="634.8786" gradientTransform="matrix(1 0 0 -1 0 796)">
			<stop  offset="0" style="stop-color:#808080;stop-opacity:0.25"/>
			<stop  offset="0.5351" style="stop-color:#808080;stop-opacity:0.12"/>
			<stop  offset="1" style="stop-color:#808080;stop-opacity:0.1"/>
		</linearGradient>
		<path class="st19" d="M612.9,161.1h93.3c2.5,0,4.5,2,4.5,4.5V251c0,2.5-2,4.5-4.5,4.5h-93.3c-2.5,0-4.5-2-4.5-4.5v-85.4
			C608.4,163.1,610.4,161.1,612.9,161.1z"/>
	</g>
	<path class="st12" d="M614.2,161.9h90.9c2.5,0,4.5,2,4.5,4.5v83.1c0,2.5-2,4.5-4.5,4.5h-90.9c-2.5,0-4.5-2-4.5-4.5v-83.1
		C609.7,163.9,611.7,161.9,614.2,161.9z"/>
	<path class="st9" d="M621.9,177h7.9c2.5,0,4.5,2,4.5,4.5v6.2c0,2.5-2,4.5-4.5,4.5h-7.9c-2.5,0-4.5-2-4.5-4.5v-6.2
		C617.4,179,619.4,177,621.9,177z"/>
	<path class="st10" d="M640.1,177h65.4c0.4,0,0.8,0.4,0.8,0.8v0.1c0,0.4-0.4,0.8-0.8,0.8h-65.4c-0.4,0-0.8-0.4-0.8-0.8v-0.1
		C639.3,177.4,639.6,177,640.1,177z"/>
	<path class="st10" d="M640.1,182.1h65.4c0.4,0,0.8,0.4,0.8,0.8v0.1c0,0.4-0.4,0.8-0.8,0.8h-65.4c-0.4,0-0.8-0.4-0.8-0.8v-0.1
		C639.3,182.4,639.6,182.1,640.1,182.1z"/>
	<path class="st10" d="M616.5,200.4h89c0.4,0,0.8,0.4,0.8,0.8v0.1c0,0.4-0.4,0.8-0.8,0.8h-89c-0.4,0-0.8-0.4-0.8-0.8v-0.1
		C615.7,200.8,616,200.4,616.5,200.4z"/>
	<path class="st10" d="M616.5,205.5h89c0.4,0,0.8,0.4,0.8,0.8v0.1c0,0.4-0.4,0.8-0.8,0.8h-89c-0.4,0-0.8-0.4-0.8-0.8v-0.1
		C615.7,205.8,616,205.5,616.5,205.5z"/>
	<path class="st10" d="M616.5,212.2h89c0.4,0,0.8,0.4,0.8,0.8v0.1c0,0.4-0.4,0.8-0.8,0.8h-89c-0.4,0-0.8-0.4-0.8-0.8V213
		C615.7,212.6,616,212.2,616.5,212.2z"/>
	<path class="st10" d="M616.5,217.3h50.6c0.4,0,0.8,0.4,0.8,0.8v0.1c0,0.4-0.4,0.8-0.8,0.8h-50.6c-0.4,0-0.8-0.4-0.8-0.8v-0.1
		C615.7,217.6,616,217.3,616.5,217.3z"/>
	<path class="st10" d="M616.5,224h89c0.4,0,0.8,0.4,0.8,0.8v0.1c0,0.4-0.4,0.8-0.8,0.8h-89c-0.4,0-0.8-0.4-0.8-0.8v-0.1
		C615.7,224.4,616,224,616.5,224z"/>
	<path class="st10" d="M616.5,229.1h89c0.4,0,0.8,0.4,0.8,0.8v0.1c0,0.4-0.4,0.8-0.8,0.8h-89c-0.4,0-0.8-0.4-0.8-0.8v-0.1
		C615.7,229.4,616,229.1,616.5,229.1z"/>
	<path class="st10" d="M616.5,235.8h89c0.4,0,0.8,0.4,0.8,0.8v0.1c0,0.4-0.4,0.8-0.8,0.8h-89c-0.4,0-0.8-0.4-0.8-0.8v-0.1
		C615.7,236.1,616,235.8,616.5,235.8z"/>
	<path class="st10" d="M616.5,240.8h50.6c0.4,0,0.8,0.4,0.8,0.8v0.1c0,0.4-0.4,0.8-0.8,0.8h-50.6c-0.4,0-0.8-0.4-0.8-0.8v-0.1
		C615.7,241.2,616,240.8,616.5,240.8z"/>
</g>
<g id="minidocxx">
	
		<linearGradient id="SVGID_6_" gradientUnits="userSpaceOnUse" x1="781.1298" y1="566.4816" x2="781.1298" y2="620.6031" gradientTransform="matrix(1 0 0 -1 0 796)">
		<stop  offset="0" style="stop-color:#808080;stop-opacity:0.25"/>
		<stop  offset="0.5351" style="stop-color:#808080;stop-opacity:0.12"/>
		<stop  offset="1" style="stop-color:#808080;stop-opacity:0.1"/>
	</linearGradient>
	<rect x="753" y="175.4" class="st20" width="56.3" height="54.1"/>
	<rect x="753.8" y="176.7" class="st18" width="54.6" height="51.7"/>
	<g class="st21">
		<rect x="771.7" y="207.4" class="st9" width="19.7" height="2.7"/>
	</g>
	<rect x="764.3" y="212.3" class="st22" width="33.6" height="2.7"/>
</g>
<g id="pagexx">
	<g class="st16">
		
			<linearGradient id="SVGID_7_" gradientUnits="userSpaceOnUse" x1="896.5139" y1="523.6354" x2="896.5139" y2="667.9595" gradientTransform="matrix(1 0 0 -1 0 796)">
			<stop  offset="0" style="stop-color:#808080;stop-opacity:0.25"/>
			<stop  offset="0.5351" style="stop-color:#808080;stop-opacity:0.12"/>
			<stop  offset="1" style="stop-color:#808080;stop-opacity:0.1"/>
		</linearGradient>
		<rect x="835.1" y="128" class="st23" width="122.8" height="144.3"/>
	</g>
	<rect x="838.9" y="130.4" class="st12" width="116.4" height="138.8"/>
	<rect x="856.3" y="191.3" class="st10" width="81.9" height="3.5"/>
	<rect x="856.3" y="214.2" class="st10" width="81.9" height="3.5"/>
	<rect x="856.3" y="220.3" class="st10" width="81.9" height="3.5"/>
	<rect x="856.3" y="208.1" class="st10" width="34.6" height="3.5"/>
	<rect x="912.3" y="208.1" class="st24" width="25.8" height="3.5"/>
	<rect x="885" y="234.5" class="st9" width="25.8" height="3.5"/>
</g>
<g id="webxx">
	<g class="st16">
		
			<linearGradient id="SVGID_8_" gradientUnits="userSpaceOnUse" x1="799.9193" y1="423.0966" x2="799.9193" y2="483.0443" gradientTransform="matrix(1 0 0 -1 0 796)">
			<stop  offset="0" style="stop-color:#808080;stop-opacity:0.25"/>
			<stop  offset="0.5351" style="stop-color:#808080;stop-opacity:0.12"/>
			<stop  offset="1" style="stop-color:#808080;stop-opacity:0.1"/>
		</linearGradient>
		<rect x="763.4" y="313" class="st25" width="73" height="59.9"/>
	</g>
	<rect x="764.3" y="314.1" class="st1" width="71.1" height="57.8"/>
	<rect x="764.3" y="314.1" class="st26" width="71.1" height="12.9"/>
	<rect x="764.3" y="314.1" class="st9" width="71.1" height="12.9"/>
	<rect x="769.9" y="331.7" class="st10" width="59.8" height="7.5"/>
	<rect x="769.9" y="344.8" class="st10" width="43.6" height="2.6"/>
	<rect x="769.9" y="349.2" class="st10" width="28.3" height="2.6"/>
	<rect x="769.9" y="353.6" class="st10" width="37.4" height="2.6"/>
	<rect x="769.9" y="358" class="st10" width="43.6" height="2.6"/>
	<rect x="769.9" y="362.4" class="st10" width="14.6" height="2.6"/>
	<g class="st16">
		
			<linearGradient id="SVGID_9_" gradientUnits="userSpaceOnUse" x1="762.9585" y1="430.7281" x2="762.9586" y2="505.0316" gradientTransform="matrix(1 0 0 -1 0 796)">
			<stop  offset="0" style="stop-color:#808080;stop-opacity:0.25"/>
			<stop  offset="0.5351" style="stop-color:#808080;stop-opacity:0.12"/>
			<stop  offset="1" style="stop-color:#808080;stop-opacity:0.1"/>
		</linearGradient>
		<rect x="717.7" y="291" class="st27" width="90.5" height="74.3"/>
	</g>
	<rect x="718.8" y="292.4" class="st12" width="88.2" height="71.7"/>
	<rect x="718.8" y="292.4" class="st9" width="88.2" height="16"/>
	<rect x="725.8" y="314.2" class="st18" width="74.1" height="9.3"/>
	<rect x="725.8" y="330.5" class="st10" width="54.1" height="3.2"/>
	<rect x="725.8" y="335.9" class="st10" width="35.1" height="3.2"/>
	<rect x="725.8" y="341.4" class="st10" width="46.4" height="3.2"/>
	<rect x="725.8" y="346.8" class="st10" width="54.1" height="3.2"/>
	<rect x="725.8" y="352.3" class="st10" width="18.1" height="3.2"/>
	<rect x="729.7" y="317.3" class="st28" width="21.1" height="2.8"/>
</g>
<circle class="st15" cx="594.4" cy="476.1" r="12.2"/>
<circle class="st15" cx="617.1" cy="436.8" r="12.2"/>
</svg>
